<svg width="745" height="213" viewBox="0 0 745 213" fill="none" xmlns="http://www.w3.org/2000/svg">
<path d="M72.3 113.95L42.3 111.55L37.5 151.6L21 152.35L13.95 53.5L80.1 51.4L79.65 61.45L48 65.2L43.65 100.75L71.55 100.45L72.3 113.95ZM89.2828 153.25L81.6328 79L113.733 74.05L104.133 151.9L89.2828 153.25ZM86.2828 62.35C83.5828 59.55 82.2328 56.25 82.2328 52.45C82.2328 48.65 83.5828 45.4 86.2828 42.7C89.0828 39.9 92.3828 38.5 96.1828 38.5C99.9828 38.5 103.233 39.9 105.933 42.7C108.733 45.4 110.133 48.65 110.133 52.45C110.133 56.25 108.733 59.55 105.933 62.35C103.233 65.05 99.9828 66.4 96.1828 66.4C92.3828 66.4 89.0828 65.05 86.2828 62.35ZM178.61 72.55C180.51 72.55 182.36 72.85 184.16 73.45C189.26 79.65 192.76 90.4 194.66 105.7C196.56 120.9 197.51 136 197.51 151L170.51 153.25C170.51 130.25 169.66 109.3 167.96 90.4C154.66 95.3 145.81 115.8 141.41 151.9L126.56 153.25L118.91 78.85L151.01 73.9L147.71 100.3H149.06C153.06 91.6 157.61 84.8 162.71 79.9C167.81 75 173.11 72.55 178.61 72.55ZM223.934 154.45C221.534 154.45 219.534 154.05 217.934 153.25C214.234 149.45 211.234 143.8 208.934 136.3C206.734 128.8 205.634 120.45 205.634 111.25C205.634 99.35 207.934 90.6 212.534 85C217.234 79.4 225.334 76.6 236.834 76.6C243.934 76.6 250.984 78 257.984 80.8L255.734 48.55L287.834 43.6L278.234 151.9L263.384 153.25L261.434 127.45H260.234C252.534 145.45 240.434 154.45 223.934 154.45ZM242.684 85.6C238.984 85.6 235.834 86.3 233.234 87.7C231.834 94.9 231.134 102.35 231.134 110.05C231.134 126.05 232.134 136.8 234.134 142.3C239.034 141.5 244.184 138.05 249.584 131.95C252.384 128.75 254.684 124.2 256.484 118.3C258.384 112.4 259.334 105.65 259.334 98.05C259.334 96.55 259.234 94.2 259.034 91C254.534 87.4 249.084 85.6 242.684 85.6ZM428.68 153.25L407.23 73.45H406.03L389.68 151L376.18 153.25L343.63 79.3H342.73L340.33 151L325.33 151.75L332.38 53.5L368.68 52L383.83 123.4L401.38 51.25L437.68 53.5L442.18 151L428.68 153.25ZM487.098 159.7C483.598 168.4 479.948 174.4 476.148 177.7C472.448 181.1 467.498 182.8 461.298 182.8C455.198 182.8 449.348 180.55 443.748 176.05L448.248 168.4C451.548 169.6 455.148 170.2 459.048 170.2C463.048 170.2 466.648 168.9 469.848 166.3C473.048 163.7 475.098 159.75 475.998 154.45L444.948 79L477.048 74.05L486.948 131.65H488.148L507.498 74.5L519.648 77.8L487.098 159.7Z" fill="#5FBCFF"/>
<path d="M601.797 186.074C601.057 186.023 600.318 185.983 599.582 185.917C595.445 185.529 591.649 184.178 588.281 181.743C582.472 177.534 578.756 171.936 577.277 164.897C576.738 162.263 576.557 159.569 576.739 156.887C576.937 153.744 577.55 150.641 578.562 147.659C580.169 142.87 582.589 138.525 585.653 134.52C587.959 131.516 590.571 128.759 593.446 126.295C596.122 123.961 598.608 121.418 600.881 118.691C603.766 115.269 606.372 111.641 608.953 107.987C611.23 104.759 613.471 101.508 615.887 98.389C617.682 96.0181 619.646 93.7793 621.762 91.6899C624.434 89.1018 627.385 86.9127 630.863 85.4887C633.448 84.4252 636.209 83.8517 639.004 83.7974C642.181 83.7132 645.356 84.0492 648.445 84.7968C653.11 85.9386 657.388 88.2969 660.844 91.6313C663.267 93.9376 665.317 96.5513 667.221 99.2822C669.245 102.182 671.101 105.187 673.016 108.156C675.176 111.498 677.409 114.789 679.898 117.901C682.375 120.998 685.121 123.869 688.105 126.481C691.72 129.621 694.931 133.198 697.663 137.13C700.008 140.493 701.878 144.162 703.22 148.036C704.267 151.054 704.888 154.203 705.065 157.392C705.322 162.268 704.48 166.932 702.265 171.318C700.215 175.381 697.25 178.65 693.53 181.238C690.792 183.146 687.838 184.595 684.587 185.401C683.436 185.692 682.265 185.896 681.084 186.012C680.919 186.027 680.762 186.056 680.601 186.085C680.447 186.169 680.279 186.103 680.114 186.122C679.978 186.144 679.839 186.085 679.711 186.166H676.68C676.559 186.081 676.424 186.14 676.296 186.125H675.655C673.071 186.041 670.563 185.503 668.059 184.921C663.824 183.933 659.669 182.633 655.452 181.56C652.047 180.672 648.585 180.014 645.092 179.591C642.67 179.335 640.233 179.259 637.8 179.364C635.859 179.43 633.927 179.73 632.016 180.085C628.245 180.795 624.552 181.806 620.854 182.816C616.945 183.892 613.035 184.958 609.03 185.613C607.401 185.876 605.772 186.103 604.114 186.089C603.773 186.081 603.437 186.133 603.092 186.125C602.653 186.1 602.225 186.177 601.793 186.078L601.797 186.074ZM676.512 18.3768C681.959 19.0321 686.125 21.8032 689.306 26.1704C691.484 29.1649 692.857 32.5254 693.706 36.1166C694.419 39.1993 694.72 42.3628 694.603 45.5246C694.423 51.2987 693.026 56.9697 690.503 62.1663C688.787 65.7988 686.451 69.104 683.599 71.933C681.025 74.4516 678.115 76.465 674.718 77.7206C672.331 78.5992 669.878 79.0385 667.338 78.8847C662.938 78.6321 659.2 76.8823 656.063 73.8293C653.383 71.2229 651.56 68.0673 650.297 64.5787C649.428 62.1454 648.851 59.6178 648.577 57.0486C648.376 55.2917 648.302 53.5226 648.357 51.7552C648.485 47.5893 649.236 43.5332 650.59 39.5943C652.025 35.3991 654.064 31.5334 656.846 28.074C659.189 25.1674 661.924 22.7074 665.204 20.8917C667.589 19.5496 670.217 18.6959 672.935 18.3804C673.019 18.3329 673.111 18.3548 673.195 18.3475H673.455C673.583 18.3329 673.715 18.3914 673.828 18.3036H675.615C675.728 18.3951 675.86 18.3329 675.985 18.3475H676.248C676.332 18.3475 676.424 18.3292 676.512 18.3768V18.3768ZM551.147 82.7321C551.231 81.0702 551.531 79.4375 551.967 77.8304C552.816 74.7079 554.2 71.8635 556.36 69.4291C558.681 66.7443 561.837 64.9164 565.321 64.2382C568.22 63.6671 571.083 63.9088 573.895 64.78C577.131 65.7757 579.99 67.4743 582.534 69.6854C586.48 73.1081 589.313 77.3216 591.272 82.1391C592.297 84.665 593.007 87.2788 593.399 89.973C593.589 91.2799 593.681 92.5941 593.71 93.9193C593.77 96.4139 593.492 98.9051 592.883 101.325C592.052 104.565 590.653 107.512 588.428 110.037C585.974 112.891 582.584 114.777 578.866 115.356C576.062 115.81 573.305 115.503 570.611 114.632C566.987 113.457 563.875 111.436 561.137 108.818C558.498 106.281 556.318 103.306 554.694 100.025C553.066 96.8202 551.959 93.3763 551.414 89.8229C551.323 89.1896 551.246 88.5563 551.158 87.9267C551.092 87.6375 551.121 87.341 551.048 87.0555C551.015 86.9346 551.033 86.8212 551.03 86.6967C551.008 86.5466 551.077 86.3819 550.982 86.2318V83.9109C551.129 83.6986 551.055 83.4643 551.07 83.2373C551.085 83.0689 551.041 82.8896 551.147 82.7358V82.7321ZM589.412 45.5466C589.431 40.9414 590.086 36.7938 591.627 32.7963C592.787 29.7763 594.384 27.0161 596.606 24.6403C598.996 22.0704 601.837 20.2328 605.263 19.3652C608.69 18.4939 612.057 18.7429 615.367 19.9399C618.284 21.0015 620.829 22.6671 623.091 24.7721C626.697 28.1253 629.278 32.1777 631.119 36.7206C632.29 39.6053 633.096 42.5924 633.553 45.6711C633.813 47.4136 633.963 49.1744 634 50.9425C634.047 53.1693 633.891 55.3958 633.531 57.594C632.766 62.1919 631.207 66.4749 628.425 70.2601C626.737 72.6101 624.548 74.5547 622.015 75.9525C619.197 77.4992 615.986 78.1816 612.782 77.9146C609.832 77.6913 607.108 76.7249 604.571 75.2204C601.262 73.2619 598.582 70.6188 596.349 67.5072C593.706 63.8099 591.883 59.7246 590.734 55.3354C590.106 52.9372 589.699 50.4864 589.518 48.0139C589.438 47.1941 589.402 46.3704 589.412 45.5466V45.5466ZM734.011 85.4301V85.9646C733.809 90.405 732.619 94.5819 730.705 98.5647C729.214 101.678 727.25 104.541 724.884 107.054C721.828 110.294 718.28 112.823 714.06 114.339C711.534 115.25 708.927 115.697 706.237 115.547C702.372 115.381 698.696 113.829 695.881 111.176C693.472 108.936 691.887 106.183 690.884 103.086C690 100.322 689.603 97.4262 689.712 94.527C689.91 88.1134 691.934 82.2855 695.449 76.9519C696.631 75.1503 697.995 73.4747 699.519 71.9513C702.657 68.8251 706.244 66.4237 710.494 65.0582C712.882 64.2713 715.4 63.958 717.907 64.1357C721.678 64.3831 725.241 65.9514 727.97 68.5652C730.518 70.9703 732.129 73.9391 733.099 77.2777C733.637 79.119 733.952 81.0043 734.014 82.9262V83.4643C733.995 84.1194 733.995 84.775 734.014 85.4301H734.011Z" fill="#F9AA16"/>
</svg>
